<svg xmlns="http://www.w3.org/2000/svg" xmlns:xlink="http://www.w3.org/1999/xlink" width="167" height="43" viewBox="0 0 167 43">
  <defs>
    <path id="6azds26esb" d="M11.716.152H.217V22.88h11.636c1.939.004 3.516-1.582 3.531-3.55v-5.936c-.028-1.102-.816-2.03-1.885-2.222.984-.314 1.678-1.207 1.749-2.252v-5.22c-.015-1.967-1.59-3.55-3.525-3.55h-.007zM5.099 4.554h4.941c.195-.01.361.142.37.34V8.956c.011.159-.105.295-.26.308H5.097v-4.71zm0 8.866h5.076c.178-.025.344.104.368.285.002.02.004.038.002.057v4.371c.011.178-.122.332-.297.341-.013.002-.025.002-.039 0H5.1V13.42z"/>
    <path id="am0hvdmuzd" d="M0.155 0.15L4.728 0.15 4.728 22.876 0.155 22.876z"/>
    <path id="07kgefaqbf" d="M.496 3.892V19.13c-.005 2.066 1.641 3.748 3.679 3.753H12.099c2.037.006 3.692-1.665 3.697-3.731v-8.654H7.861l-.004 4.292h3.162v3.25c.01.177-.123.329-.299.34H5.704c-.173.012-.325-.124-.336-.301V5.003c-.01-.177.123-.33.297-.34.014-.002.027-.002.039 0h4.944c.176-.012.327.124.336.3v2.36h4.776V3.911c.007-2.067-1.641-3.747-3.679-3.753H4.186C2.154.158.504 1.828.497 3.892z"/>
    <path id="inio7qt4fh" d="M13.068.152H.606V22.88H5.67v-8.326h7.402c2.114.005 3.834-1.666 3.841-3.731V3.909c.008-2.066-1.7-3.75-3.815-3.757h-.03zM5.666 4.655h5.866c.182-.009.34.125.35.302v4.749c.01.177-.128.33-.31.34-.013.002-.026.002-.04 0H5.666v-5.39z"/>
    <path id="nzb36rsw7j" d="M.856 3.883v15.239c-.005 2.068 1.641 3.748 3.677 3.754h7.723c2.036.006 3.692-1.666 3.697-3.732V14.38h-4.776v3.653c.012.179-.121.33-.294.342-.014.002-.027.002-.04 0H6.067c-.175.011-.326-.124-.338-.301 0-.014 0-.027.002-.041V4.998c-.011-.177.122-.33.297-.34H10.843c.176-.012.325.123.334.3.002.014.002.028 0 .04v3.145h4.776V3.911c.011-2.067-1.632-3.749-3.672-3.76H4.547C2.513.152.86 1.82.856 3.884z"/>
    <path id="qy0u6w5g4l" d="M0.048 0.152L0.046 4.655 5.932 4.655 5.932 22.876 10.895 22.876 10.895 4.655 16.784 4.655 16.784 0.152z"/>
    <path id="46tkff1rmn" d="M10.707.152V18.03c.01.178-.122.33-.299.342H5.427c-.178.01-.328-.127-.336-.304-.002-.014-.002-.026 0-.038V.15H.213v18.971c-.005 2.068 1.64 3.748 3.678 3.754h7.99c2.036.006 3.694-1.666 3.699-3.732V.152h-4.873z"/>
    <path id="4yl0is31np" d="M13.079.152H.414V22.88h4.964v-8.36h3.393l3.968 8.36h5.444l-4.037-8.497c1.604-.48 2.699-1.952 2.697-3.621V3.905C16.85 1.839 15.174.157 13.102.152h-.023zM5.377 4.654h6.195c.178-.01.333.125.342.302V9.67c.011.177-.124.331-.302.34-.012.002-.026.002-.04 0H5.377V4.655z"/>
    <path id="ubxuocak9r" d="M0.007 0.156L0.007 22.885 14.277 22.885 14.277 18.381 4.992 18.381 4.992 13.501 14.29 13.493 14.29 8.989 4.992 8.989 4.992 4.66 14.243 4.66 14.243 0.156z"/>
    <path id="3rv4w78jgt" d="M0.57 1.537L0.57 24.482 5.657 25.815 5.657 25.841 5.673 25.841 5.673 0.222 5.657 0.222 5.657 0.205z"/>
    <path id="i7ea9f09qv" d="M0.108 1.145L78.667 1.145 78.667 8.145 0.108 8.145z"/>
    <filter id="4d5ulksb1a">
      <feColorMatrix in="SourceGraphic" values="0 0 0 0 0.643137 0 0 0 0 0.639216 0 0 0 0 0.682353 0 0 0 1.000000 0"/>
    </filter>
  </defs>
  <g filter="url(#4d5ulksb1a)" transform="translate(-877 -2838) translate(0 2770)">
    <g transform="translate(877 68) translate(0 1)">
      <mask id="8il8yovtuc" fill="#fff">
        <use xlink:href="#6azds26esb"/>
      </mask>
      <path fill="#777" d="M-1.333 27.9L169.624 27.9 169.624 -4.814 -1.333 -4.814z" mask="url(#8il8yovtuc)"/>
      <path fill="#777" d="M-1.333 27.885L169.624 27.885 169.624 -4.829 -1.333 -4.829z" mask="url(#8il8yovtuc)"/>
    </g>
    <g transform="translate(877 68) translate(19 1)">
      <mask id="z8xly2y1je" fill="#fff">
        <use xlink:href="#am0hvdmuzd"/>
      </mask>
      <path fill="#777" d="M-18.75 27.9L141.523 27.9 141.523 -4.814 -18.75 -4.814z" mask="url(#z8xly2y1je)"/>
      <path fill="#777" d="M-18.75 27.885L141.523 27.885 141.523 -4.829 -18.75 -4.829z" mask="url(#z8xly2y1je)"/>
    </g>
    <g transform="translate(877 68) translate(28 1)">
      <mask id="nxzzh124ug" fill="#fff">
        <use xlink:href="#07kgefaqbf"/>
      </mask>
      <path fill="#777" d="M-28 27.9L142.957 27.9 142.957 -4.814 -28 -4.814z" mask="url(#nxzzh124ug)"/>
      <path fill="#777" d="M-28 27.885L142.957 27.885 142.957 -4.829 -28 -4.829z" mask="url(#nxzzh124ug)"/>
    </g>
    <g transform="translate(877 68) translate(46 1)">
      <mask id="hagvjnlhri" fill="#fff">
        <use xlink:href="#inio7qt4fh"/>
      </mask>
      <path fill="#777" d="M-48.462 27.9L129.071 27.9 129.071 -4.814 -48.462 -4.814z" mask="url(#hagvjnlhri)"/>
      <path fill="#777" d="M-48.462 27.885L129.071 27.885 129.071 -4.829 -48.462 -4.829z" mask="url(#hagvjnlhri)"/>
    </g>
    <g transform="translate(877 68) translate(74 1)">
      <mask id="g48gh183wk" fill="#fff">
        <use xlink:href="#nzb36rsw7j"/>
      </mask>
      <path fill="#777" d="M-73.333 27.9L97.624 27.9 97.624 -4.814 -73.333 -4.814z" mask="url(#g48gh183wk)"/>
      <path fill="#777" d="M-73.333 27.885L97.624 27.885 97.624 -4.829 -73.333 -4.829z" mask="url(#g48gh183wk)"/>
    </g>
    <g transform="translate(877 68) translate(93 1)">
      <mask id="gl2ppfodxm" fill="#fff">
        <use xlink:href="#qy0u6w5g4l"/>
      </mask>
      <path fill="#777" d="M-93.286 27.9L80.724 27.9 80.724 -4.814 -93.286 -4.814z" mask="url(#gl2ppfodxm)"/>
      <path fill="#777" d="M-93.286 27.885L80.724 27.885 80.724 -4.829 -93.286 -4.829z" mask="url(#gl2ppfodxm)"/>
    </g>
    <g transform="translate(877 68) translate(112 1)">
      <mask id="cmp2hc4jho" fill="#fff">
        <use xlink:href="#46tkff1rmn"/>
      </mask>
      <path fill="#777" d="M-110.667 27.9L60.291 27.9 60.291 -4.814 -110.667 -4.814z" mask="url(#cmp2hc4jho)"/>
      <path fill="#777" d="M-110.667 27.885L60.291 27.885 60.291 -4.829 -110.667 -4.829z" mask="url(#cmp2hc4jho)"/>
    </g>
    <g transform="translate(877 68) translate(131 1)">
      <mask id="7890h17spq" fill="#fff">
        <use xlink:href="#4yl0is31np"/>
      </mask>
      <path fill="#777" d="M-131.643 27.9L42.367 27.9 42.367 -4.814 -131.643 -4.814z" mask="url(#7890h17spq)"/>
      <path fill="#777" d="M-131.643 27.885L42.367 27.885 42.367 -4.829 -131.643 -4.829z" mask="url(#7890h17spq)"/>
    </g>
    <g transform="translate(877 68) translate(152 1)">
      <mask id="oy7fef8wbs" fill="#fff">
        <use xlink:href="#ubxuocak9r"/>
      </mask>
      <path fill="#777" d="M-152.727 27.9L22.115 27.9 22.115 -4.814 -152.727 -4.814z" mask="url(#oy7fef8wbs)"/>
      <path fill="#777" d="M-152.727 27.885L22.115 27.885 22.115 -4.829 -152.727 -4.829z" mask="url(#oy7fef8wbs)"/>
    </g>
    <g transform="translate(877 68) translate(66)">
      <mask id="n6yfw3wmku" fill="#fff">
        <use xlink:href="#3rv4w78jgt"/>
      </mask>
      <path fill="#777" d="M-68.6 29.588L110.905 29.588 110.905 -3.5 -68.6 -3.5z" mask="url(#n6yfw3wmku)"/>
      <path fill="#777" d="M-68.6 29.573L110.905 29.573 110.905 -3.515 -68.6 -3.515z" mask="url(#n6yfw3wmku)"/>
    </g>
    <g transform="translate(877 68) translate(43 34)">
      <mask id="c0b77js7ww" fill="#fff">
        <use xlink:href="#i7ea9f09qv"/>
      </mask>
      <path fill="#777"
            d="M.618 8.137L1.598 8.137 1.598 1.151.618 1.151zM10.301 8.137L9.353 8.137 6.447 2.965 6.447 8.137 5.499 8.137 5.499 1.15 6.447 1.15 9.353 6.343 9.353 1.15 10.301 1.15zM13.58 1.151L18.474 1.151 18.474 2.075 16.516 2.075 16.516 8.14 15.536 8.14 15.536 2.075 13.578 2.075zM21.754 1.151L25.796 1.151 25.796 2.075 22.734 2.075 22.734 4.112 25.514 4.112 25.514 5.034 22.734 5.034 22.734 7.217 25.804 7.217 25.804 8.142 21.754 8.142zM32.986 2.513c.004-.238-.182-.436-.416-.44H30.422v2.33h2.122c.234.01.434-.177.442-.418V2.513zm-.988 2.802h-1.576v2.823h-.98V1.15h3.39c.62-.006 1.128.5 1.134 1.134V4.163c.012.551-.372 1.032-.906 1.132l1.36 2.85h-1.07l-1.352-2.83zM39.232 5.578h1.938l-.968-3.094-.97 3.094zm3.77 2.56h-.99l-.556-1.658H38.93l-.534 1.657h-1l2.34-6.986h.926l2.34 6.986zM49.62 5.808h.977v1.175c.004.635-.5 1.153-1.124 1.155h-2.224c-.618.002-1.122-.51-1.122-1.14V2.296c-.008-.629.49-1.146 1.11-1.152h2.228c.622-.002 1.13.511 1.132 1.144V3.42h-.976v-.912c0-.242-.192-.44-.428-.44h-1.644c-.238-.008-.436.182-.444.424v4.276c-.002.243.19.44.426.44h1.644c.238.006.438-.181.446-.423v-.976zM53.623 1.151L58.519 1.151 58.519 2.075 56.561 2.075 56.561 8.14 55.581 8.14 55.581 2.075 53.623 2.075zM61.84 8.137L62.82 8.137 62.82 1.151 61.84 1.151zM69.234 8.137L68.266 8.137 66.112 1.15 67.092 1.15 68.752 6.626 70.41 1.15 71.39 1.15zM74.619 1.151L78.659 1.151 78.659 2.075 75.597 2.075 75.597 4.112 78.381 4.112 78.381 5.034 75.597 5.034 75.597 7.217 78.667 7.217 78.667 8.142 74.619 8.142z"
            mask="url(#c0b77js7ww)"/>
    </g>
    <path fill="#777" d="M10.895 19.196c.012.18-.129.334-.313.345H5.15v-5.115h5.354c.189-.024.363.106.389.29.002.018.002.037.002.057v4.423zM5.15 5.455h5.212c.206-.01.382.144.391.344V9.91c.012.16-.11.3-.275.31-.016.002-.03.002-.044 0H5.148l.002-4.765zm8.861 6.697c1.038-.316 1.771-1.22 1.846-2.278V4.591C15.84 2.601 14.176.996 12.13 1H0v23h12.275c2.046.004 3.71-1.6 3.725-3.591v-6.007c-.03-1.115-.86-2.055-1.989-2.25z" transform="translate(877 68)"/>
  </g>
</svg>
