<?xml version="1.0" encoding="UTF-8"?>
<svg width="24px" height="24px" viewBox="0 0 24 24" version="1.1" xmlns="http://www.w3.org/2000/svg" xmlns:xlink="http://www.w3.org/1999/xlink">
  <defs>
    <polygon id="path-1" points="0 -6.21496467e-05 16 -6.21496467e-05 16 11.4480913 0 11.4480913"/>
  </defs>
  <g id="Icon/Platform/Discord/W/Default" stroke="none" stroke-width="1" fill="none" fill-rule="evenodd">
    <g id="Icon/Platform/Discord" transform="translate(4.000000, 6.000000)">
      <mask id="mask-2" fill="white">
        <use xlink:href="#path-1"/>
      </mask>
      <path d="M9.08258413,6.58884571 C9.07849143,7.39387429 9.66317714,8.02747429 10.4197486,8.03844571 C11.1786057,8.04941714 11.7792914,7.41307429 11.7925486,6.58473143 C11.8053486,5.76004571 11.2078629,5.10953143 10.4439771,5.11593143 C9.68786286,5.12233143 9.08672,5.77238857 9.08258413,6.58884571 M6.80650868,6.55593143 C6.81014857,5.74450286 6.23186286,5.12050286 5.47209143,5.11590805 C4.71277714,5.11136 4.09060571,5.77787429 4.08785014,6.59844571 C4.08466286,7.38793143 4.68580571,8.02976 5.43597714,8.03844571 C6.20397714,8.04758857 6.80192,7.40027429 6.80650868,6.55593143 M2.90569143,1.64164571 C6.23049143,0.240502857 9.54752,0.155017143 12.8736914,1.63890286 C11.99872,1.01307429 11.0172343,0.618102857 10.00512,0.28576 C10.0636343,0.00096 10.24512,-0.0100114286 10.4421486,0.00736 C11.4048914,0.0923885714 12.2922057,0.40736 13.1461486,0.851245714 C13.7454629,1.16301714 14.1536914,1.59456 14.4224914,2.23318857 C15.3422629,4.42061714 15.9434057,6.67341714 15.9996343,9.05741714 C16.0055771,9.30290286 15.9429486,9.49764571 15.78112,9.68278857 C14.7767771,10.82976 13.4780343,11.3358171 11.99232,11.4354743 C11.9095771,11.44096 11.79392,11.4080457 11.74272,11.3499886 C11.4538057,11.0226743 11.17952,10.68256 10.8535771,10.2898743 C11.7276343,10.0238171 12.4773486,9.63387429 13.0702629,8.98061714 C11.4894629,9.82130286 9.81677714,10.3173029 8.02020571,10.29216 C6.22180571,10.26656 4.53769143,9.78793143 2.97243429,8.89467429 C2.95323429,8.92118857 2.93403429,8.94724571 2.91529143,8.97330286 C3.25357714,9.22930286 3.57449143,9.51456 3.93517714,9.73353143 C4.29814857,9.95387429 4.70043429,10.1083886 5.14797714,10.3218743 C4.83712,10.6935314 4.53814857,11.0587886 4.22683429,11.4139886 C4.19117714,11.4546743 4.08877714,11.4496457 4.01837714,11.4450743 C2.49243429,11.3472457 1.17174857,10.8123886 0.18752,9.60004571 C0.06912,9.45421714 -0.00448,9.22290286 9.14285714e-05,9.03364571 C0.06592,6.45536 0.707748571,4.01650286 1.83049143,1.70107429 C1.91232,1.53193143 2.05540571,1.37010286 2.21037714,1.26267429 C3.20557714,0.570102857 4.30226286,0.132617143 5.51597714,0.0119314286 C5.81312,-0.0173257143 5.81357714,-0.0104685714 5.94386286,0.237302857 C4.86592,0.576502857 3.82089143,0.981988571 2.90569143,1.64164571"
            id="Fill-1" fill="#000000" mask="url(#mask-2)"/>
    </g>
  </g>
</svg>
