<?xml version="1.0" encoding="UTF-8"?>
<svg width="24px" height="24px" viewBox="0 0 24 24" version="1.1" xmlns="http://www.w3.org/2000/svg" xmlns:xlink="http://www.w3.org/1999/xlink">
  <defs>
    <polygon id="path-1" points="0.000104039375 -0.000128571429 14.9998286 -0.000128571429 14.9998286 10.5538714 0.000104039375 10.5538714"/>
  </defs>
  <g transform="translate(4.500000, 6.800000)">
    <mask id="mask-2" fill="white">
      <use xlink:href="#path-1"/>
    </mask>
    <path d="M5.93211429,5.11641429 L5.93211429,6.17841429 C5.93254286,6.49084286 5.93211429,6.80412857 5.93425714,7.11698571 C5.93511429,7.21041429 5.95697143,7.22284286 6.03754286,7.18127143 C6.44811429,6.97084286 6.85868571,6.76041429 7.26797143,6.54827143 C7.68582857,6.33184286 8.1024,6.11412857 8.5194,5.89641429 C8.98311429,5.6547 9.4464,5.41255714 9.90968571,5.16998571 C9.97954286,5.13312857 9.98125714,5.11127143 9.91054286,5.07184286 C9.7734,4.99512857 9.63368571,4.92227143 9.49397143,4.84898571 C8.84125714,4.50784286 8.18897143,4.16712857 7.53625714,3.82598571 C7.04468571,3.56927143 6.55311429,3.31084286 6.06111429,3.05412857 C5.95654286,3.00012857 5.93254286,3.01641429 5.93254286,3.13384286 C5.93254286,3.7947 5.93254286,4.45555714 5.93211429,5.11641429 M14.9998286,5.11555714 C14.9831143,5.82955714 14.9805429,6.38241429 14.9544,6.93441429 C14.9329714,7.37498571 14.9012571,7.81641429 14.8408286,8.2527 C14.7761143,8.71898571 14.6544,9.17412857 14.3912571,9.57655714 C14.2172571,9.84355714 13.9721143,10.0291286 13.6931143,10.1739857 C13.4839714,10.2824143 13.2581143,10.3518429 13.0245429,10.3659857 C12.1661143,10.4182714 11.3076857,10.4662714 10.4488286,10.5031286 C9.87025714,10.5279857 9.29082857,10.5348429 8.7114,10.5429857 C8.16454286,10.5511286 7.61768571,10.5567 7.0704,10.5524143 C6.32125714,10.5464143 5.57254286,10.5348429 4.82382857,10.5155571 C4.18654286,10.4992714 3.5484,10.4782714 2.91197143,10.4418429 C2.55068571,10.4212714 2.18982857,10.3801286 1.83282857,10.3218429 C1.46811429,10.2622714 1.13211429,10.1217 0.8514,9.86927143 C0.619114286,9.66098571 0.472114286,9.40041429 0.364971429,9.11112857 C0.1944,8.6517 0.121542857,8.17512857 0.0936857143,7.6887 C0.0632571429,7.1547 0.0101142857,6.62112857 0.00368571429,6.08712857 C-0.00531428571,5.3007 0.00197142857,4.51298571 0.0332571429,3.72741429 C0.0551142857,3.18527143 0.106971429,2.64184286 0.187114286,2.10527143 C0.250542857,1.68098571 0.378257143,1.26527143 0.643971429,0.913414286 C0.8874,0.591128571 1.20797143,0.364842857 1.59882857,0.266271429 C1.85425714,0.201128571 2.12082857,0.171128571 2.38482857,0.148842857 C2.7984,0.114128571 3.21325714,0.0918428571 3.62854286,0.0781285714 C4.31297143,0.0545571429 4.99697143,0.0391285714 5.6814,0.0258428571 C6.34568571,0.0129857143 7.00997143,-0.00287142857 7.6734,0.000128571429 C8.58368571,0.00527142857 9.49354286,0.0211285714 10.4029714,0.0434142857 C11.0141143,0.0579857143 11.6248286,0.0884142857 12.2355429,0.118842857 C12.5184,0.132557143 12.8038286,0.143271429 13.0824,0.191271429 C13.7998286,0.314271429 14.3415429,0.681985714 14.5944,1.38998571 C14.6981143,1.6797 14.7778286,1.98141429 14.8356857,2.28398571 C14.8875429,2.55227143 14.9055429,2.8287 14.9192571,3.10255714 C14.9539714,3.82641429 14.9775429,4.55155714 14.9998286,5.11555714"
          fill="#000000" mask="url(#mask-2)"/>
  </g>
</svg>
