<?xml version="1.0" encoding="UTF-8"?>
<svg width="24px" height="24px" viewBox="0 0 24 24" version="1.1" xmlns="http://www.w3.org/2000/svg" xmlns:xlink="http://www.w3.org/1999/xlink">
  <defs>
    <polygon id="path-1" points="0 0 13.7288889 0 13.7288889 15.9999111 0 15.9999111"/>
  </defs>
  <g transform="translate(5.000000, 5.000000)">
    <mask id="mask-2" fill="white">
      <use xlink:href="#path-1"/>
    </mask>
    <path d="M12.5913778,7.39324444 C11.8140444,8.17102222 11.0384889,8.94613333 10.2487111,9.73591111 L7.98871111,9.73591111 C7.34026667,10.3848 6.69271111,11.0328 6.04515556,11.6803556 C6.03582222,11.6754667 6.02737778,11.6736889 6.02293333,11.6683556 C6.01671111,11.6621333 6.00915556,11.6532444 6.00915556,11.6456889 C6.00826667,11.0168 6.00871111,10.3874667 6.00871111,9.73857778 L3.43626667,9.73857778 L3.43626667,1.15413333 L12.5913778,1.15413333 L12.5913778,7.39324444 Z M2.86782222,-8.88888889e-05 C1.90337778,0.964355556 0.9536,1.91413333 -0.000177777778,2.86791111 L-0.000177777778,13.1759111 L3.43137778,13.1759111 C3.43137778,14.1114667 3.43137778,15.0265778 3.43182222,15.9421333 C3.43182222,15.9496889 3.43893333,15.9581333 3.44515556,15.9648 C3.45137778,15.9710222 3.45982222,15.9750222 3.49715556,15.9999111 C4.4336,15.0639111 5.37493333,14.1225778 6.3256,13.1710222 L8.59626667,13.1710222 C10.3229333,11.4439111 12.0296,9.73724444 13.7291556,8.03857778 L13.7291556,-8.88888889e-05 L2.86782222,-8.88888889e-05 Z"
          id="Fill-1" fill="#000000" mask="url(#mask-2)"/>
    <path d="M7.71764444,3.14693333 C7.33275556,3.15626667 6.95631111,3.13626667 6.59097778,3.15893333 L6.59097778,6.58115556 L7.71764444,6.58115556 L7.71764444,3.14693333 Z" id="Fill-4" fill="#000000" mask="url(#mask-2)"/>
    <path d="M10.8678222,3.15408889 L9.7416,3.15408889 L9.7416,6.58786667 C10.1269333,6.57897778 10.5029333,6.59942222 10.8678222,6.57542222 L10.8678222,3.15408889 Z" id="Fill-6" fill="#000000" mask="url(#mask-2)"/>
  </g>
</svg>
